<svg xmlns="http://www.w3.org/2000/svg" width="5.185" height="9.56" viewBox="0 0 5.185 9.56">
  <path id="Shape_20" data-name="Shape 20" d="M617.472,581.538a.463.463,0,0,0,.331-.14l4.222-4.265.012-.013a.512.512,0,0,0,.1-.144s0,0,0,0a.537.537,0,0,0,.045-.217v0a.537.537,0,0,0-.044-.211h0a.527.527,0,0,0-.1-.148l-.011-.012-4.222-4.265a.46.46,0,0,0-.679.02.538.538,0,0,0,.018.724l3.857,3.9-3.857,3.9a.538.538,0,0,0-.018.724A.466.466,0,0,0,617.472,581.538Z" transform="translate(-616.992 -571.978)" fill="#243f4d"/>
</svg>
