<svg xmlns="http://www.w3.org/2000/svg" width="22" height="20.001" viewBox="0 0 22 20.001">
  <path id="Forma_1" data-name="Forma 1" d="M1123.64,2424.15a1.84,1.84,0,1,1,1.84,1.849A1.845,1.845,0,0,1,1123.64,2424.15Zm13.374,1.849a1.7,1.7,0,1,1,.135,0Zm-10.757-5.734a.815.815,0,0,1-.787-.6l-3.323-12.038h-2.334a.815.815,0,0,1,0-1.631h2.944a.813.813,0,0,1,.787.6l3.324,12.038h9.061l3.011-6.928H1128.9a.816.816,0,0,1,0-1.632h11.285a.811.811,0,0,1,.679.366.826.826,0,0,1,.068.775l-3.716,8.561a.816.816,0,0,1-.746.489Z" transform="translate(-1119 -2405.998)" fill="#fff"/>
</svg>
